<?xml version="1.0" encoding="utf-8"?>
<!-- Generator: Adobe Illustrator 19.2.0, SVG Export Plug-In . SVG Version: 6.00 Build 0)  -->
<svg version="1.1" id="Слой_1" xmlns="http://www.w3.org/2000/svg" xmlns:xlink="http://www.w3.org/1999/xlink" x="0px" y="0px"
	 viewBox="0 0 595.3 595.9" style="enable-background:new 0 0 595.3 595.9;" xml:space="preserve">
<style type="text/css">
	.st0{clip-path:url(#SVGID_2_);fill:#FFFFFF;}
	.st1{fill:#FFFFFF;}
</style>
<g>
	<defs>
		<rect id="SVGID_1_" x="-0.2" y="62.2" width="595.8" height="458.3"/>
	</defs>
	<clipPath id="SVGID_2_">
		<use xlink:href="#SVGID_1_"  style="overflow:visible;"/>
	</clipPath>
	<path class="st0" d="M305.9,184.4c-13.1,2.9-24.3,9.5-33.5,18H372C354.9,186.4,330.4,178.9,305.9,184.4L305.9,184.4z M305.9,184.4"
		/>
	<path class="st0" d="M594.4,304.2L547.1,94.7c-5-22.1-27.6-36.5-49.8-31.5l-416.3,94c-10.8,2.5-20.1,9-26.1,18.4
		c-5,8-7,17.5-6,26.8h88.2c2-6,3.3-12.2,3.7-18.6L454.7,113c12.8,23.4,37.7,37.8,64.7,36.8l26.3,116.5c-6,2.6-11.4,5.9-16.3,9.9
		v85.4l33.5-7.6C585.3,349,599.4,326.6,594.4,304.2L594.4,304.2z M594.4,304.2"/>
</g>
<path class="st1" d="M468.2,222H41.4c-23,0-41.7,18.7-41.7,41.7v214.9c0,23,18.7,41.7,41.7,41.7h426.8c23,0,41.7-18.7,41.7-41.7
	V263.6C509.9,240.7,491.2,222,468.2,222L468.2,222z M470.8,430.8c-26.6,5-47.7,24.6-55.1,50.2H94c-7.4-25.6-28.5-45.3-55.1-50.2
	V311.3c26.6-5,47.7-24.6,55.1-50.2h321.7c7.4,25.6,28.5,45.3,55.1,50.2V430.8z M470.8,430.8"/>
<path class="st1" d="M254.8,298.1c-40.3,0-73,32.7-73,73s32.7,73,73,73c40.3,0,73-32.7,73-73S295.1,298.1,254.8,298.1L254.8,298.1z
	 M254.8,298.1"/>
</svg>
