<?xml version="1.0" encoding="utf-8"?>
<!-- Generator: Adobe Illustrator 19.2.0, SVG Export Plug-In . SVG Version: 6.00 Build 0)  -->
<svg version="1.1" id="Слой_1" xmlns="http://www.w3.org/2000/svg" xmlns:xlink="http://www.w3.org/1999/xlink" x="0px" y="0px"
	 viewBox="0 0 600 400" style="enable-background:new 0 0 600 400;" xml:space="preserve">
<style type="text/css">
	.st0{fill:#FFFFFF;}
	.st1{fill:none;stroke:#FFFFFF;stroke-miterlimit:10;}
	.st2{display:none;opacity:0.44;fill:none;stroke:#FFFFFF;stroke-width:0.75;stroke-miterlimit:10;}
	.st3{fill:none;stroke:#FFFFFF;}
</style>
<g>
	<path class="st0" d="M103.5,201.6c0,1-0.4,1.9-1.3,2.6c-0.8,0.7-1.8,1-2.9,1c-0.7,0-1.5-0.2-2.2-0.7s-1.2-1.1-1.6-1.9L85,178.4H31
		l-10.7,24.2c-0.8,1.8-2.1,2.6-3.9,2.6c-1.1,0-2.1-0.3-2.9-1c-0.8-0.7-1.2-1.6-1.2-2.7c0-0.6,0.1-1.2,0.3-1.5l40.6-91.3
		c0.8-2,2.4-3.1,4.6-3.1c1,0,2,0.3,2.9,0.8c0.9,0.6,1.5,1.3,1.9,2.2l40.5,91.3C103.3,200.5,103.5,201.1,103.5,201.6z M34.2,170.9
		h47.5L58,117L34.2,170.9z"/>
	<path class="st0" d="M175.9,136.8c0.8,0.8,1.2,1.8,1.2,3.1v60.7c0,9.8-2.4,17.3-7.3,22.3c-4.9,5.1-12.1,7.6-21.6,7.6
		c-5,0-9.5-0.5-13.4-1.5c-3.9-1-7.6-2.5-11.1-4.5c-3.3-2-5-4-5-6c0-1,0.3-1.9,0.9-2.5c0.6-0.7,1.4-1,2.3-1c0.6,0,1.3,0.3,2.3,0.8
		c1,0.5,1.6,0.9,2,1c3.2,1.8,6.4,3.2,9.7,4.4c3.3,1.2,7.5,1.7,12.4,1.7c6.8,0,11.9-1.8,15.3-5.4c3.4-3.6,5.1-9,5.1-16.1v-13.2
		c-1.9,4.5-4.9,8-9,10.5c-4,2.5-8.9,3.7-14.7,3.7c-5.9,0-11.2-1.4-15.8-4.2c-4.6-2.8-8.2-6.7-10.7-11.8c-2.6-5.1-3.8-10.9-3.8-17.5
		c0-6.6,1.3-12.4,3.8-17.5c2.6-5.1,6.1-9,10.7-11.8c4.6-2.8,9.9-4.2,15.8-4.2c5.7,0,10.5,1.2,14.5,3.5c4,2.4,7,5.8,9,10.4V140
		c0-1.3,0.4-2.3,1.1-3.1c0.7-0.8,1.8-1.2,3.1-1.2C174.1,135.7,175.1,136.1,175.9,136.8z M162.7,188c3.9-4.6,5.9-11,5.9-19.1
		s-2-14.4-6-19.1c-4-4.7-9.5-7-16.4-7c-7.1,0-12.6,2.3-16.6,7c-4,4.6-6,11-6,19.2c0,8.2,2,14.5,6,19.1c4,4.6,9.5,6.9,16.6,6.9
		C153.3,195,158.8,192.6,162.7,188z"/>
	<path class="st0" d="M234.6,136.4c0.7,0.6,1.1,1.5,1.1,2.8c0,2.3-1.4,3.6-4.2,3.9l-4.2,0.4c-6.6,0.6-11.5,3-14.7,7.1
		c-3.2,4.1-4.8,8.9-4.8,14.3v36c0,1.4-0.4,2.5-1.1,3.2c-0.7,0.7-1.8,1.1-3.1,1.1c-1.3,0-2.3-0.4-3.1-1.1c-0.8-0.7-1.2-1.8-1.2-3.2
		v-61c0-1.4,0.4-2.5,1.2-3.2c0.8-0.7,1.8-1.1,3.1-1.1c1.2,0,2.2,0.4,2.9,1.1c0.7,0.7,1.1,1.8,1.1,3.1v9c3.8-8,10.9-12.3,21.2-13.1
		l1.9-0.1C232.6,135.6,233.8,135.8,234.6,136.4z"/>
	<path class="st0" d="M246.3,118.3c-1.2-1.1-1.7-2.6-1.7-4.3c0-1.9,0.6-3.3,1.7-4.5c1.2-1.1,2.7-1.7,4.5-1.7c1.9,0,3.4,0.6,4.5,1.7
		c1.2,1.1,1.7,2.6,1.7,4.5c0,1.8-0.6,3.2-1.7,4.3c-1.2,1.1-2.7,1.7-4.5,1.7C249,119.9,247.5,119.4,246.3,118.3z M247.7,204.1
		c-0.8-0.7-1.2-1.8-1.2-3.2v-61c0-1.4,0.4-2.5,1.2-3.2c0.8-0.7,1.8-1.1,3.1-1.1c1.3,0,2.3,0.4,3.1,1.1c0.7,0.7,1.1,1.8,1.1,3.2v61
		c0,1.4-0.4,2.5-1.1,3.2c-0.7,0.7-1.8,1.1-3.1,1.1C249.6,205.2,248.5,204.9,247.7,204.1z"/>
	<path class="st0" d="M106.4,317.2c0,1.8-0.7,3.2-2.2,4.5c-1.4,1.2-3,1.8-4.8,1.8c-1.2,0-2.3-0.3-3.4-1c-1.1-0.7-1.9-1.7-2.4-3
		l-9.2-20.9H33.5l-9.2,20.9c-0.6,1.3-1.4,2.3-2.5,3c-1.1,0.7-2.3,1-3.5,1c-1.9,0-3.5-0.6-4.9-1.8c-1.4-1.2-2.2-2.7-2.2-4.5
		c0-0.7,0.2-1.7,0.7-2.8l39.2-85.9c0.6-1.5,1.7-2.6,3.1-3.5c1.4-0.8,2.9-1.3,4.5-1.3c1.6,0,3.1,0.4,4.5,1.3c1.4,0.8,2.5,2,3.1,3.5
		l39.2,85.9C106.2,315.5,106.4,316.5,106.4,317.2z M38.6,287.1h40.8l-20.5-46.1L38.6,287.1z"/>
	<path class="st0" d="M180.6,280.6v36.2c0,2.1-0.6,3.8-1.9,4.9c-1.3,1.2-3,1.7-5.2,1.7c-2.1,0-3.8-0.6-5.1-1.8
		c-1.3-1.2-1.9-2.8-1.9-4.9v-35.5c0-5.8-1.1-10-3.4-12.7c-2.3-2.7-5.8-4-10.6-4c-5.7,0-10.2,1.8-13.6,5.3c-3.4,3.5-5.1,8.3-5.1,14.2
		v32.7c0,2-0.6,3.7-1.9,4.9c-1.3,1.2-2.9,1.8-5.1,1.8c-2.1,0-3.9-0.6-5.1-1.8c-1.3-1.2-1.9-2.8-1.9-4.9v-56.6c0-1.9,0.7-3.5,2-4.8
		c1.3-1.3,3-1.9,5.1-1.9c2,0,3.7,0.6,4.9,1.8c1.2,1.2,1.8,2.8,1.8,4.7v5.7c2.2-4.1,5.3-7.2,9.3-9.3c4-2.1,8.5-3.2,13.5-3.2
		C172.5,253.2,180.6,262.3,180.6,280.6z"/>
	<path class="st0" d="M248.4,260c4.4,4.5,6.6,11.5,6.6,20.7v36c0,2.1-0.6,3.8-1.8,4.9c-1.2,1.2-2.9,1.7-5,1.7c-2,0-3.7-0.6-4.9-1.8
		c-1.2-1.2-1.8-2.8-1.8-4.9v-5.1c-1.8,3.9-4.4,6.9-7.9,9c-3.5,2.1-7.5,3.1-12.2,3.1c-4.5,0-8.5-0.9-12.2-2.7
		c-3.7-1.8-6.6-4.3-8.7-7.6c-2.1-3.2-3.1-6.9-3.1-10.9c0-4.9,1.3-8.8,3.8-11.6c2.6-2.8,6.8-4.8,12.7-6.1c5.9-1.2,14-1.8,24.3-1.8
		h3.2v-4c0-5.2-1.1-9-3.2-11.3c-2.1-2.3-5.6-3.5-10.3-3.5c-3.2,0-6.3,0.4-9.2,1.3c-2.9,0.8-6,2-9.5,3.6c-2.5,1.4-4.3,2.1-5.3,2.1
		c-1.4,0-2.5-0.5-3.4-1.5c-0.9-1-1.3-2.3-1.3-3.9c0-1.4,0.4-2.6,1.2-3.7c0.8-1.1,2.1-2.1,3.8-3.1c3.2-1.8,7-3.2,11.4-4.2
		c4.4-1.1,8.6-1.6,12.7-1.6C237.3,253.2,244,255.5,248.4,260z M236.5,308.1c3.2-3.5,4.9-8,4.9-13.4V291h-2.5c-7.2,0-12.8,0.3-16.7,1
		c-3.9,0.7-6.7,1.7-8.4,3.3s-2.5,3.7-2.5,6.6c0,3.3,1.2,6.1,3.6,8.2c2.4,2.1,5.4,3.2,9,3.2C229.1,313.3,233.3,311.6,236.5,308.1z"/>
	<path class="st0" d="M276.3,321.8c-1.3-1.1-2-2.8-2-5v-86c0-2.2,0.7-3.9,2-5.1c1.3-1.2,3-1.7,5.1-1.7c2,0,3.7,0.6,5,1.7
		c1.3,1.2,1.9,2.9,1.9,5.1v86c0,2.2-0.6,3.9-1.9,5c-1.3,1.1-3,1.7-5,1.7C279.3,323.5,277.6,322.9,276.3,321.8z"/>
	<path class="st0" d="M358.6,254.6c1.1-0.6,2.2-1,3.4-1c1.8,0,3.3,0.6,4.7,1.8c1.3,1.2,2,2.6,2,4.3c0,0.9-0.2,1.8-0.6,2.6
		l-38.7,82.1c-0.6,1.3-1.4,2.3-2.4,3c-1.1,0.7-2.2,1-3.4,1c-1.7,0-3.2-0.6-4.5-1.7c-1.3-1.1-2-2.5-2-4.2c0-0.7,0.2-1.7,0.7-2.8
		l9.6-20.5l-26.9-57.1c-0.4-0.7-0.6-1.6-0.6-2.5c0-1.8,0.7-3.2,2.2-4.5c1.5-1.2,3.2-1.8,5-1.8c2.8,0,4.8,1.3,6,3.9l21.6,47.9
		l21.4-47.7C356.8,256.2,357.6,255.2,358.6,254.6z"/>
	<path class="st0" d="M419.6,314.3c0.9,0.9,1.3,2.1,1.3,3.7c0,1.9-0.7,3.3-2.2,4.2c-1.4,1-3.5,1.4-6.3,1.2l-3.8-0.3
		c-7.5-0.6-13.1-2.9-16.8-6.9c-3.7-4-5.6-10-5.6-17.9v-32.7h-8.3c-4.1,0-6.1-1.8-6.1-5.4c0-1.7,0.5-3,1.6-4c1.1-1,2.6-1.5,4.5-1.5
		h8.3v-14.3c0-2.1,0.6-3.8,1.9-5c1.3-1.2,2.9-1.8,5.1-1.8c2.1,0,3.8,0.6,5.1,1.8c1.3,1.2,1.9,2.9,1.9,5v14.3h13.8
		c1.9,0,3.5,0.5,4.5,1.5c1.1,1,1.6,2.3,1.6,4c0,1.8-0.5,3.1-1.6,4c-1.1,0.9-2.6,1.4-4.5,1.4h-13.8v33.7c0,4.4,0.9,7.6,2.7,9.6
		c1.8,2,4.6,3.2,8.3,3.5l3.9,0.3C417.2,312.9,418.7,313.5,419.6,314.3z"/>
	<path class="st0" d="M431.8,237.6c-1.6-1.5-2.4-3.4-2.4-5.8c0-2.4,0.8-4.3,2.4-5.8c1.6-1.4,3.7-2.2,6.4-2.2c2.6,0,4.7,0.7,6.3,2.2
		c1.6,1.4,2.4,3.4,2.4,5.8c0,2.4-0.8,4.4-2.4,5.8c-1.6,1.5-3.7,2.2-6.4,2.2C435.5,239.8,433.3,239.1,431.8,237.6z M433.1,321.8
		c-1.3-1.1-2-2.8-2-5v-56.5c0-2.2,0.7-3.9,2-5.1c1.3-1.2,3-1.7,5.1-1.7c2,0,3.7,0.6,5,1.7c1.3,1.2,1.9,2.9,1.9,5.1v56.5
		c0,2.2-0.7,3.9-1.9,5c-1.3,1.1-3,1.7-5,1.7C436.1,323.5,434.4,322.9,433.1,321.8z"/>
	<path class="st0" d="M476.5,319.4c-5-2.9-8.8-7-11.6-12.2c-2.7-5.3-4.1-11.4-4.1-18.4c0-7,1.4-13.3,4.2-18.6
		c2.8-5.4,6.8-9.6,11.9-12.5c5.1-3,10.9-4.5,17.5-4.5c3.5,0,7.1,0.5,10.6,1.5c3.6,1,6.8,2.4,9.5,4.2c3,2,4.5,4.4,4.5,7.1
		c0,1.6-0.4,2.9-1.3,4c-0.8,1.1-1.9,1.6-3.2,1.6c-0.8,0-1.7-0.2-2.5-0.6c-0.8-0.4-1.9-1-3.2-1.9c-2.3-1.5-4.5-2.6-6.5-3.4
		c-2-0.8-4.4-1.2-7.2-1.2c-6.3,0-11.2,2.1-14.7,6.4c-3.5,4.3-5.2,10.2-5.2,17.8c0,7.6,1.7,13.5,5.1,17.6c3.4,4.1,8.3,6.2,14.6,6.2
		c2.8,0,5.2-0.4,7.4-1.3c2.1-0.8,4.3-1.9,6.5-3.3c1-0.6,2-1.2,3.1-1.7c1-0.5,1.9-0.7,2.8-0.7c1.3,0,2.4,0.5,3.2,1.6
		c0.8,1.1,1.3,2.4,1.3,4c0,1.3-0.3,2.5-1,3.5c-0.7,1.1-1.9,2.2-3.5,3.3c-2.8,1.9-6,3.3-9.7,4.3c-3.7,1-7.5,1.5-11.3,1.5
		C487.2,323.7,481.5,322.3,476.5,319.4z"/>
	<path class="st0" d="M580.6,260c4.4,4.5,6.6,11.5,6.6,20.7v36c0,2.1-0.6,3.8-1.8,4.9c-1.2,1.2-2.9,1.7-5,1.7c-2,0-3.7-0.6-4.9-1.8
		c-1.2-1.2-1.8-2.8-1.8-4.9v-5.1c-1.8,3.9-4.4,6.9-7.9,9c-3.5,2.1-7.5,3.1-12.2,3.1c-4.5,0-8.5-0.9-12.2-2.7
		c-3.7-1.8-6.6-4.3-8.7-7.6c-2.1-3.2-3.1-6.9-3.1-10.9c0-4.9,1.3-8.8,3.8-11.6c2.6-2.8,6.8-4.8,12.7-6.1c5.9-1.2,14-1.8,24.3-1.8
		h3.2v-4c0-5.2-1.1-9-3.2-11.3c-2.1-2.3-5.6-3.5-10.3-3.5c-3.2,0-6.3,0.4-9.2,1.3c-2.9,0.8-6,2-9.5,3.6c-2.5,1.4-4.3,2.1-5.3,2.1
		c-1.4,0-2.5-0.5-3.4-1.5c-0.9-1-1.3-2.3-1.3-3.9c0-1.4,0.4-2.6,1.2-3.7c0.8-1.1,2.1-2.1,3.8-3.1c3.2-1.8,7-3.2,11.4-4.2
		c4.4-1.1,8.6-1.6,12.7-1.6C569.5,253.2,576.2,255.5,580.6,260z M568.7,308.1c3.2-3.5,4.9-8,4.9-13.4V291h-2.5
		c-7.2,0-12.8,0.3-16.7,1c-3.9,0.7-6.7,1.7-8.3,3.3c-1.7,1.5-2.5,3.7-2.5,6.6c0,3.3,1.2,6.1,3.6,8.2c2.4,2.1,5.4,3.2,9,3.2
		C561.3,313.3,565.5,311.6,568.7,308.1z"/>
</g>
<g>
	<path class="st0" d="M421.9,51.5c0,0-19.4,12.8-38.3,15.9C243.5,90.1,281.4,193,283.1,193.6c0.1-0.1,0.2-0.3,0.3-0.4
		c0.4-0.5,0.9-1,1.3-1.5c0,0,0,0,0-0.1c0,0,0,0,0,0c13.7-16.4,29.1-33.9,41.3-48.3c0.7-0.8,1.9-0.9,2.6-0.1l25.6,25.1
		c0.8,0.8,2.2,0.6,2.8-0.3l22.4-35.4c1-1.5-0.7-3.4-2.3-2.6l-6.4,3.1c-0.9,0.4-2,0.1-2.4-0.8l-2.7-5.5c-0.2-0.4,0-0.9,0.4-1.1
		c10.6-5.5,21.1-11,31.7-16.5c0.6-0.3,1.3,0.1,1.4,0.8l3.4,37.4c0.1,1-0.6,1.9-1.6,2l-6,0.5c-1,0.1-1.9-0.6-2-1.6l-1-11.1
		c-0.2-1.7-2.4-2.3-3.3-0.8l-29.8,46.9c-0.6,1-2,1.1-2.8,0.3c-8.8-8.7-17.6-17.4-26.4-26.1c-0.8-0.8-2-0.7-2.7,0.2
		c-5.7,7.1-11.5,13.3-19.9,23.5c-2,2.5-5.9,7.8-13,17.1c-0.5,0.6-2.7,3.4-3.7,4.6c-1.6,1.9-2.7,3.4-3.2,4c-3.8,5.1-4.4,5.7-7.6,9.9
		c-2.2,2.8-3.5,4.7-4.4,7.5c-0.5,1.8-0.7,3.4-0.9,5.4c-0.3,2.9-0.1,4.1,0.1,4.1c0.2,0,0.4-0.9,0.8-0.9c0.3,0,0.6,0.5,0.7,0.6
		c0.7,1.2,6.4,9.4,10.3,9c0.4,0,1-0.2,1.7-0.7c-0.2-6,0.4-16.5,6.3-27.3c1.2-2.3,2.6-4.3,3.9-6.1c1.5-2,4.1-2.9,6.6-2.3
		c11.3,3.1,35.6,7.7,62.5-2.5c38.4-14.4,53.7-47.9,57.5-56.6C444.8,101.2,425.2,58.4,421.9,51.5z"/>
	<path class="st1" d="M365.4,125.1"/>
	<path class="st2" d="M279,199.6c0,0,11.7-13.2,24.4-19.1c80.8-37.8,110.4-97.4,110.4-97.4S379.5,155.2,308,187.2
		c-15.8,7.1-31.2,30.5-41.5,55.2"/>
</g>
<path class="st3" d="M740.8,150.5c-0.9-3.9-1.1-7.1-1.6-10.2c-1.3-7.3,1.4-12.8,6.8-17.4c3.7-3.1,7-6.3,6.4-12.3
	c1.7,1.9,1.8,3.7,1.2,5.2c-2.2,6.3-2.6,12.8-3.3,19.3C749.7,141.4,744.8,145.4,740.8,150.5z"/>
<path class="st3" d="M736.8,134.3c1.3,8.8,2.8,17.6-2,25.9c-1.8,3.2-3.4,6.5-5.6,10.7c-0.7-5.5-1.3-9.8-1.8-14.1
	c-0.5-4.5,1.1-8.2,3.8-11.7c2.1-2.8,3.9-5.7,4.6-9.2C735.8,135.1,735.4,134.2,736.8,134.3z"/>
<path class="st3" d="M789.2,133.4c-2.3-0.1-4.6,0.2-6.4,1.7c-5.2,4.4-11.5,5.1-17.8,5.5c-3.7,0.2-7.3,0.5-11,1.7
	c3-7.4,9.2-11.5,17.3-10.9c5.6,0.4,11,1.4,16.7,0.7c0.9-0.1,1.9,0.5,2.9,0.7C790.7,134.3,789.8,133.7,789.2,133.4z"/>
<path class="st3" d="M761.1,157.1c-2.6,0.6-4.7,2-6.5,4c-3.9,4.3-8.5,7.2-14.5,7.4c-2.2,0.1-4.4,0.6-6.5,1.6
	c2.8-10.2,7.7-14.9,17.8-14.6c2.9-0.3,5.8,0.3,8.7,0.5C760.8,156.1,761.3,156.3,761.1,157.1z"/>
<path class="st3" d="M743.3,154.1c6.2-9.4,28.9-14.7,37.5-9.1c-5.5-1.8-8.7,1.6-12.3,4.6c-3.8,3.3-8.7,3.3-13.5,3
	C751.4,152.5,747.7,151.7,743.3,154.1z"/>
<path class="st3" d="M767.6,106.1c-1,4.6-2.3,9.3-3.1,13.9c-1.2,7.1-5.9,11.5-11.1,17c-0.1-9.7,0.6-18,8-24.1
	c2.2-1.9,3.9-4.1,4.8-6.9C766.7,105.6,767.2,105.7,767.6,106.1z"/>
<path class="st3" d="M801.9,102.8c-5.3,3.8-9.5,7.8-13.5,12.1c-3.4,3.7-8.3,3.3-13.2,3.6c0.7-4.5,2.3-8,6.8-9.6
	c6.1-2.2,12.1-4.4,18.2-6.5C800.6,102.2,800.9,102.5,801.9,102.8z"/>
<path class="st3" d="M795,121.2c-3.3,1.5-6.4,3.1-9.5,5c-5.4,3.3-11.5,3.4-17.6,3.5c-1.8,0-1.9-0.8-0.8-2c3.6-4.2,8.1-6.9,13.7-7.2
	c4.4-0.3,8.9-0.1,13.3-0.2C794.4,120.6,794.9,120.8,795,121.2z"/>
<path class="st3" d="M778.2,105.6c-1.8,3.5-3.1,7.2-4.2,11c-1.2,3.8-4.5,5.7-7.7,8.3c-0.6-6,0.9-10.9,4.8-14.8c2.1-2.1,4.4-4,6.5-6
	C779,104.1,778.6,104.9,778.2,105.6z"/>
<path class="st3" d="M761.1,157.1c-3-1.8-6.5-0.6-9.7-1.6c4.2-0.8,8.2,0.3,13.3,0.6C762.3,157.2,762.3,157.2,761.1,157.1z"/>
<path class="st3" d="M778.2,105.6c-0.2-0.5-0.4-1.1-0.6-1.6c0.4-1.2,1-2.3,0.9-3.6C779.7,102.3,779.4,104,778.2,105.6z"/>
<path class="st3" d="M767.6,106.1c-0.5,0-0.9-0.1-1.4-0.1c0.1-0.9-0.8-1.8,0.2-2.9C767.7,103.8,767.8,104.9,767.6,106.1z"/>
<path class="st3" d="M736.8,134.3c-0.7,0.3-0.8,1-0.9,1.7c-0.5-1.2-0.7-2.6-1.9-3.4c-0.2-0.2-0.2-0.4-0.1-0.6
	c0.1-0.2,0.2-0.3,0.2-0.3C735.5,132,736.5,132.8,736.8,134.3z"/>
<path class="st3" d="M789.2,133.4c0.5-0.2,1.1-0.4,1.6-0.6c1,0.4,2,0.7,2.6,2.1C791.7,134.8,790.4,134.2,789.2,133.4z"/>
<path class="st3" d="M734.2,131.6c0,0.3-0.1,0.6-0.1,0.9c-0.9-0.3-1.8-0.6-3.2-1.1C732.5,130.7,733.3,130.7,734.2,131.6z"/>
<path class="st3" d="M795,121.2c-0.3-0.3-0.6-0.6-0.9-0.9c1.4-0.4,2.7,0,4.2,0.3C797.3,121.9,796.1,121.2,795,121.2z"/>
<g>
</g>
<g>
</g>
<g>
</g>
<g>
</g>
<g>
</g>
<g>
</g>
</svg>
